<svg width="180" height="68" viewBox="0 0 180 68" fill="none" xmlns="http://www.w3.org/2000/svg">
<path d="M24.0684 34.5019C24.0684 35.3469 24.7345 36.0071 25.5871 36.0071C26.4397 36.0071 27.1058 35.3469 27.1058 34.5019C27.1058 33.6568 26.4397 32.9966 25.5871 32.9966C24.7345 33.023 24.0684 33.6832 24.0684 34.5019ZM36.8044 33.023C35.9518 33.023 35.2857 33.6832 35.2857 34.5283C35.2857 35.3733 35.9518 36.0335 36.8044 36.0335C37.657 36.0335 38.3231 35.3733 38.3231 34.5283C38.3231 33.6832 37.657 33.023 36.8044 33.023ZM36.8044 44.3257C35.9518 44.3257 35.2857 44.9859 35.2857 45.831C35.2857 46.676 35.9518 47.3362 36.8044 47.3362C37.657 47.3362 38.3231 46.676 38.3231 45.831C38.3231 44.9859 37.657 44.3257 36.8044 44.3257Z" fill="#D1D1D1"/>
<path d="M40.0283 20.5849C38.5096 18.7099 35.7918 18.6307 34.1932 20.1095L34.0066 20.2944L33.6336 20.5849C32.1149 21.7997 29.8501 21.694 28.438 20.2944V20.1888C27.9584 19.7134 27.3189 19.3437 26.6528 19.1589C26.5462 19.1589 26.3597 19.0532 26.2798 19.0532H24.761C24.6544 19.0532 24.5745 19.0532 24.4679 19.1589H24.2814C24.1748 19.1589 24.0949 19.2645 23.9883 19.2645C23.9883 19.2645 23.8818 19.2645 23.8818 19.3701C23.7752 19.3701 23.6952 19.4758 23.5887 19.4758C23.5887 19.4758 23.4821 19.4758 23.4821 19.5814C23.3755 19.687 23.2956 19.687 23.189 19.7662C23.189 19.7662 23.0824 19.7662 23.0824 19.8719C22.9758 19.9775 22.8959 19.9775 22.7893 20.0567L22.6828 20.1624L22.4962 20.3472L22.1232 20.6377C20.6045 21.8525 18.3397 21.7469 17.0341 20.3472C17.0341 20.3472 16.9276 20.3472 16.9276 20.2416L16.741 20.0567C16.1815 19.5814 15.5154 19.2117 14.7694 19.1324H13.0641C13.0641 19.2381 12.9575 19.2381 12.8776 19.3173H12.851C12.3714 19.5022 11.9184 19.687 11.5187 20.0567L11.4122 20.1624L11.1191 20.4529C10.746 20.8226 10.5595 21.2979 10.373 21.6676C10.373 21.7733 10.2664 21.8525 10.2664 21.9581C10.2664 22.0638 10.1599 22.143 10.1599 22.3278C10.0533 22.988 10.0533 23.6482 10.2664 24.282C10.2664 24.3877 10.373 24.4669 10.373 24.5725V24.6782C10.373 24.7838 10.4796 24.863 10.4796 24.9687C10.5862 25.0743 10.5862 25.1535 10.6661 25.3384C10.8526 25.444 11.0391 25.6289 11.1457 25.7081L11.3322 25.8929L11.5187 26.0778C12.9309 27.4774 12.9309 29.907 11.4122 31.4122C11.2256 31.5971 10.9326 31.8876 10.8526 32.0725C10.746 32.1781 10.746 32.2573 10.6661 32.4422V32.5478C10.5595 32.6534 10.5595 32.7327 10.4796 32.8383V32.9439C10.4796 33.0496 10.373 33.1288 10.373 33.2344V33.34C10.373 33.4457 10.373 33.5249 10.2664 33.6305V35.0302C10.2664 35.1358 10.2664 35.215 10.373 35.3207V35.4263C10.5595 36.0865 10.9326 36.7467 11.4921 37.3013C13.0108 38.8065 13.0108 41.2361 11.4921 42.715L11.3855 42.8206L11.199 43.0054V43.1111C11.0924 43.2167 11.0125 43.2959 11.0125 43.4016C11.0125 43.4016 11.0125 43.5072 10.9059 43.5072C10.7993 43.6128 10.7993 43.6921 10.7194 43.7977L10.6128 43.9033C10.6128 44.009 10.5062 44.0089 10.5062 44.0882C10.5062 44.1674 10.3997 44.1938 10.3997 44.273C10.3997 44.3787 10.3997 44.3787 10.2931 44.4579C10.1066 44.8276 10 45.3029 10 45.6727V46.4121C10.1066 46.7026 10.1066 46.9667 10.2931 47.1515C10.2931 47.2572 10.3997 47.3364 10.3997 47.3364C10.3997 47.3364 10.3997 47.442 10.5062 47.442C10.5062 47.5476 10.6128 47.6269 10.6128 47.7325C10.6128 47.7325 10.6128 47.8381 10.7194 47.8381C10.826 48.023 10.9059 48.1286 11.0125 48.2078C11.0125 48.2078 11.0125 48.3135 11.1191 48.3135C11.1191 48.3135 11.1191 48.4191 11.2256 48.4191C11.2256 48.5248 11.3322 48.5248 11.3322 48.5248L11.4388 48.6304C11.5454 48.736 11.6253 48.736 11.6253 48.8152L11.7319 48.9209C11.7319 48.9209 11.8385 48.9209 11.8385 49.0265C11.945 49.1321 12.025 49.2114 12.1316 49.2114C12.1316 49.2114 12.2381 49.2114 12.2381 49.317C12.3447 49.4226 12.4246 49.4226 12.5312 49.5018H12.5845C12.6911 49.6075 12.771 49.6075 12.9575 49.6075C13.0641 49.6075 13.2506 49.7131 13.3306 49.7131H13.4371C13.5437 49.7131 13.6236 49.7131 13.7302 49.8187H14.5828C14.8759 49.8187 15.0624 49.7131 15.3289 49.7131H15.4355C15.542 49.7131 15.622 49.6075 15.7286 49.6075H15.7818C15.8884 49.6075 15.9684 49.5018 16.0749 49.5018H16.1815C16.368 49.3962 16.6611 49.2114 16.8476 49.1321L17.1407 48.8416L17.2473 48.736C18.766 47.1515 21.2173 47.1515 22.7094 48.736C24.4146 50.5054 27.239 50.4261 28.8376 48.4455C29.9567 47.0459 29.9567 44.9861 28.8376 43.4808C27.3189 41.6058 24.6012 41.5266 23.0025 43.0054L22.816 43.1903L22.443 43.4808C20.9242 44.6956 18.6594 44.5899 17.2473 43.1903L17.0608 43.0054L16.7677 42.6357C15.542 41.1305 15.6486 38.8858 17.0608 37.4861C17.9134 36.7467 18.2864 35.7168 18.2864 34.6869V34.3964C18.2864 33.4721 17.9134 32.5214 17.1674 31.8612C17.1674 31.7556 17.0608 31.7556 17.0608 31.6763L16.7677 31.3066C15.542 29.8013 15.6486 27.5567 17.0608 26.157L17.1674 26.0514L17.2739 25.9458C18.7927 24.3613 21.244 24.3613 22.736 25.9458L22.8426 26.0514L22.9492 26.157L23.1357 26.3419C23.2423 26.3419 23.2423 26.4475 23.3222 26.4475C23.4022 26.4475 23.4288 26.5531 23.5087 26.5531C23.5887 26.5531 23.6153 26.6588 23.6952 26.6588C23.7752 26.6588 23.8018 26.7644 23.8818 26.7644C23.9617 26.7644 23.9883 26.87 24.0683 26.87C24.1482 26.87 24.1748 26.9757 24.2548 26.9757C24.3347 26.9757 24.3614 26.9757 24.4413 27.0813C24.5479 27.0813 24.5479 27.0813 24.6278 27.1869H26.2265C26.333 27.1869 26.413 27.1869 26.5196 27.0813H26.7061C26.8126 27.0813 26.8926 26.9757 26.9992 26.9757H27.1057C27.2123 26.9757 27.2922 26.87 27.4788 26.7908C27.8518 26.606 28.2248 26.3155 28.5179 26.0514L28.6245 25.9458C30.1432 24.3613 32.5945 24.3613 34.0866 25.9458C35.6852 27.8207 38.6161 27.7151 40.1349 25.7609C41.1474 24.0444 41.1474 21.9845 40.0283 20.5849Z" fill="#D1D1D1"/>
<path d="M61.5305 32.1777C60.9709 31.6231 60.4913 31.2534 59.8252 30.9629C59.2657 30.6724 58.5996 30.4876 57.747 30.4876C57.0009 30.4876 56.2282 30.6724 55.6687 30.9629C55.1092 31.2534 54.6296 31.6231 54.2565 32.1777C53.8835 32.653 53.5904 33.2076 53.4039 33.8678C53.2174 34.528 53.1108 35.1882 53.1108 35.822C53.1108 36.4558 53.2174 37.1424 53.4839 37.7762C53.6704 38.4364 54.0434 38.8854 54.4164 39.3607C54.7894 39.8361 55.349 40.2058 55.9351 40.4699C56.4947 40.7603 57.1608 40.8396 57.9068 40.8396C58.7595 40.8396 59.4256 40.6547 59.9851 40.3642C60.5446 40.0737 61.1042 39.704 61.5838 39.1494L63.5555 41.2093C62.8094 42.0543 61.9568 42.6089 60.9976 42.9786C60.065 43.3483 59.0259 43.5332 57.8802 43.5332C56.7611 43.5332 55.6154 43.3483 54.6829 42.9786C53.7503 42.6089 52.8977 42.0543 52.2316 41.3941C51.5655 40.7339 51.0059 39.8889 50.6329 38.9646C50.2599 38.0403 50.0734 36.9047 50.0734 35.7956C50.0734 34.6865 50.2599 33.5509 50.6329 32.6266C51.0059 31.7023 51.5655 30.8573 52.2316 30.0914C52.8977 29.4312 53.7503 28.8767 54.6829 28.5069C55.6154 28.1372 56.7611 27.9524 57.8802 27.9524C58.9993 27.9524 60.0384 28.1372 60.9976 28.5069C62.0367 28.8767 62.8893 29.5369 63.6354 30.2763L61.5305 32.1777ZM67.9251 35.6372C67.9251 36.3766 68.0317 37.1424 68.2982 37.697C68.4847 38.3572 68.8577 38.9118 69.2307 39.3871C69.6037 39.8625 70.1633 40.2322 70.7495 40.417C71.309 40.7075 72.0817 40.7867 72.8277 40.7867C73.5738 40.7867 74.2399 40.6811 74.906 40.417C75.4655 40.1265 76.0251 39.7568 76.4247 39.3871C76.7977 38.9118 77.1708 38.3572 77.3573 37.697C77.5438 37.0368 77.7303 36.3766 77.7303 35.6372C77.7303 34.8977 77.6237 34.1319 77.3573 33.5773C77.1708 32.9171 76.7977 32.3625 76.4247 31.8872C76.0517 31.4118 75.4922 31.0421 74.906 30.8573C74.3465 30.5668 73.5738 30.4876 72.8277 30.4876C72.0817 30.4876 71.4156 30.5932 70.7495 30.8573C70.1899 31.1478 69.6304 31.5175 69.2307 31.8872C68.8577 32.3625 68.4847 32.9171 68.2982 33.5773C68.1117 34.2375 67.9251 34.8977 67.9251 35.6372ZM64.9143 35.6372C64.9143 34.528 65.1008 33.4981 65.4739 32.5474C65.8469 31.6231 66.4064 30.778 67.1791 30.0122C67.9251 29.2728 68.6978 28.6918 69.737 28.3221C70.6695 27.9524 71.7087 27.6619 72.8544 27.6619C74.0001 27.6619 75.0126 27.8467 75.9718 28.3221C76.9043 28.6918 77.7569 29.2464 78.5296 30.0122C79.2757 30.7516 79.7553 31.5967 80.2349 32.5474C80.6079 33.4717 80.7944 34.5016 80.7944 35.6372C80.7944 36.7463 80.6079 37.7762 80.2349 38.7269C79.8619 39.6512 79.3023 40.4963 78.5296 41.2621C77.7836 42.0015 77.0109 42.4769 75.9718 42.9522C75.0392 43.3219 74.0001 43.6124 72.8544 43.6124C71.7353 43.6124 70.6962 43.4276 69.737 42.9522C68.8044 42.5825 67.9518 42.0279 67.1791 41.2621C66.4331 40.5227 65.9535 39.7568 65.4739 38.7269C65.2074 37.7762 64.9143 36.7463 64.9143 35.6372ZM83.6987 43.2163H86.523V28.2693H83.6987V43.2163ZM83.0325 22.8292C83.0325 22.2746 83.2191 21.7993 83.5921 21.3239C83.9651 20.9542 84.4447 20.6637 85.0042 20.6637C85.5638 20.6637 86.0434 20.8486 86.4164 21.3239C86.7894 21.6936 86.9759 22.2482 86.9759 22.8292C86.9759 23.4102 86.7894 23.8591 86.4164 24.3345C86.0434 24.7042 85.5638 24.9947 85.0042 24.9947C84.4447 24.9947 83.9651 24.8098 83.5921 24.3345C83.2191 23.9383 83.0325 23.3838 83.0325 22.8292ZM90.4663 28.2429H93.3173V30.5668H93.4239C93.7969 29.7217 94.3564 29.0615 95.3156 28.6126C96.1683 28.1372 97.2074 27.8731 98.433 27.8731C99.1791 27.8731 99.8452 27.9788 100.511 28.2429C101.177 28.4277 101.737 28.7974 102.217 29.2728C102.696 29.7481 103.069 30.3027 103.442 31.0421C103.735 31.7816 103.922 32.6266 103.922 33.6565V43.2955H101.044V34.4224C101.044 33.7622 100.938 33.102 100.751 32.653C100.565 32.1777 100.272 31.7287 100.005 31.4383C99.712 31.1478 99.3389 30.8837 98.886 30.778C98.513 30.6724 98.0334 30.5932 97.5538 30.5932C96.9942 30.5932 96.4347 30.6988 95.9551 30.8837C95.4755 31.0685 95.0225 31.359 94.6229 31.808C94.2499 32.1777 93.9568 32.7323 93.7703 33.3925C93.5838 34.0527 93.4772 34.7921 93.4772 35.6372V43.4012H90.6529V28.2693L90.4663 28.2429ZM114.34 40.866C115.086 40.866 115.752 40.7603 116.418 40.4963C117.084 40.2058 117.537 39.8361 118.017 39.3871C118.39 38.9118 118.763 38.3572 118.949 37.697C119.136 37.0368 119.322 36.3766 119.322 35.5579C119.322 34.8185 119.216 34.0527 118.949 33.4189C118.763 32.7587 118.39 32.2041 118.017 31.7287C117.537 31.2534 117.084 30.8837 116.418 30.6196C115.752 30.3291 115.086 30.2499 114.34 30.2499C113.594 30.2499 112.928 30.3555 112.262 30.6196C111.595 30.9101 111.142 31.2798 110.663 31.7287C110.29 32.2041 109.917 32.7587 109.73 33.4189C109.544 34.0791 109.357 34.7393 109.357 35.5579C109.357 36.2974 109.464 37.0632 109.73 37.697C109.917 38.3572 110.29 38.9118 110.663 39.3871C111.036 39.8625 111.595 40.2322 112.262 40.4963C112.821 40.6811 113.594 40.866 114.34 40.866ZM122.173 43.1107H119.349V40.9716H119.242C118.683 41.8167 117.91 42.3712 116.978 42.8466C116.045 43.3219 115.006 43.5068 113.967 43.5068C112.848 43.5068 111.702 43.3219 110.769 42.9522C109.837 42.5825 108.984 42.0279 108.318 41.2621C107.652 40.5227 107.092 39.6776 106.799 38.7269C106.426 37.8026 106.24 36.7727 106.24 35.6372C106.24 34.5016 106.426 33.4981 106.799 32.4682C107.172 31.5439 107.652 30.6988 108.318 29.933C108.984 29.1936 109.837 28.6126 110.769 28.2429C111.702 27.8731 112.741 27.6883 113.967 27.6883C115.006 27.6883 116.045 27.8732 116.978 28.3485C117.91 28.8238 118.683 29.4576 119.136 30.2235H119.242V19H122.067V43.1107H122.173ZM136.588 34.4224C136.588 33.7622 136.481 33.2076 136.295 32.653C136.108 32.0985 135.815 31.6231 135.442 31.2534C135.069 30.8837 134.59 30.5932 134.11 30.3291C133.55 30.1443 132.991 29.9594 132.218 29.9594C131.552 29.9594 130.886 30.065 130.326 30.3291C129.767 30.6196 129.287 30.8837 128.808 31.359C128.435 31.7287 128.062 32.2041 127.875 32.7587C127.689 33.3132 127.502 33.7886 127.502 34.2639H136.561L136.588 34.4224ZM127.555 36.7463C127.555 37.4065 127.742 37.9611 128.035 38.5156C128.328 39.0702 128.701 39.5456 129.154 39.9153C129.634 40.285 130.193 40.5755 130.753 40.7603C131.419 40.9452 131.978 41.0508 132.645 41.0508C133.497 41.0508 134.35 40.866 134.989 40.3906C135.655 40.0209 136.215 39.4663 136.774 38.8061L138.933 40.4963C137.334 42.5561 135.069 43.586 132.245 43.586C131.019 43.586 129.98 43.4012 129.048 43.0314C128.115 42.6617 127.262 42.1072 126.596 41.3413C125.93 40.6019 125.371 39.836 125.077 38.8061C124.704 37.8818 124.518 36.8519 124.518 35.7164C124.518 34.6072 124.704 33.5773 125.077 32.6266C125.451 31.7023 126.01 30.8573 126.676 30.0914C127.342 29.352 128.195 28.8767 129.127 28.4013C130.06 28.0316 131.099 27.8467 132.245 27.8467C133.577 27.8467 134.696 28.0316 135.629 28.5069C136.561 28.9823 137.334 29.5369 137.893 30.2763C138.453 31.0157 138.933 31.8608 139.226 32.8115C139.519 33.7358 139.599 34.6865 139.599 35.7164V36.7463H127.555V36.7463ZM150.736 31.9928C150.363 31.6231 149.99 31.2534 149.51 30.9629C149.031 30.6724 148.391 30.4876 147.725 30.4876C147.059 30.4876 146.5 30.6724 145.94 30.9629C145.46 31.2534 145.194 31.6231 145.194 32.1777C145.194 32.653 145.381 33.0227 145.674 33.2076C145.967 33.4981 146.34 33.6829 146.713 33.8678C147.086 34.0527 147.565 34.1583 147.938 34.2375C148.418 34.3432 148.791 34.4224 149.057 34.4224C149.617 34.6072 150.283 34.7129 150.763 34.9769C151.322 35.1618 151.802 35.4523 152.175 35.822C152.548 36.1917 152.841 36.5614 153.107 37.0368C153.294 37.5121 153.48 38.0667 153.48 38.8061C153.48 39.6512 153.294 40.3906 152.921 40.9452C152.548 41.4998 152.068 42.0543 151.509 42.4505C150.949 42.8466 150.283 43.1107 149.537 43.2955C148.791 43.4804 148.018 43.586 147.379 43.586C146.153 43.586 145.034 43.4012 144.075 43.0314C143.142 42.6617 142.29 42.0015 141.517 40.9716L143.675 39.2023C144.155 39.6776 144.608 40.0473 145.194 40.417C145.78 40.7867 146.42 40.9716 147.272 40.9716C147.645 40.9716 148.018 40.9716 148.391 40.866C148.764 40.7603 149.057 40.6811 149.324 40.4963C149.617 40.3114 149.804 40.1265 149.99 39.9417C150.177 39.6512 150.283 39.3871 150.283 39.0966C150.283 38.7269 150.177 38.3572 149.91 38.0667C149.617 37.7762 149.351 37.5914 148.978 37.4065C148.605 37.2216 148.232 37.116 147.858 37.0368L146.739 36.7463C146.18 36.5614 145.514 36.4558 145.034 36.271C144.475 36.0861 143.995 35.7956 143.622 35.5315C143.249 35.241 142.876 34.7921 142.583 34.3167C142.29 33.8414 142.21 33.2076 142.21 32.5474C142.21 31.808 142.396 31.0421 142.689 30.4876C142.983 29.933 143.436 29.4576 144.022 29.0879C144.581 28.7182 145.141 28.4277 145.807 28.2429C146.473 28.058 147.219 27.9524 147.885 27.9524C148.924 27.9524 149.857 28.1372 150.816 28.5069C151.749 28.8767 152.521 29.5369 153.081 30.3819L150.736 31.9928ZM156.225 19.3697H159.049V34.5016L165.47 28.1372H169.334L162.46 34.8713L170 42.8994H165.95L159.076 35.241V42.8994H156.251V19.3697" fill="#D1D1D1"/>
</svg>
