<svg width="180" height="68" viewBox="0 0 180 68" fill="none" xmlns="http://www.w3.org/2000/svg">
<path d="M33.2267 42.9139L26.56 45.7844V45.4947C25.28 45.8107 23.84 45.995 22.5067 46.0741C16.2133 46.0214 11.2533 42.7559 11.1733 38.9111V37.489C13.2267 40.4385 17.44 42.4399 22.5067 42.3609C24.2133 42.4399 25.9733 42.1766 27.44 41.7815L28.0267 40.3595C26.2933 40.8862 24.3733 41.2285 22.5067 41.2285C16.2133 41.2285 11.2533 37.9894 11.1733 34.0656V32.9068C13.2267 35.6456 17.44 37.6207 22.5067 37.489C24.8 37.6207 27.0133 37.1467 28.9067 36.3303L29.2 34.9083C27.36 35.8563 24.9867 36.4093 22.5333 36.3303C16.24 36.4093 11.28 33.1702 11.2 29.1673V28.0086C13.2533 30.8001 17.4667 32.8015 22.5333 32.8805C25.4133 32.8015 28.1333 32.0378 30.3733 30.8791L30.6667 29.1673C28.64 30.6421 25.68 31.6165 22.5333 31.7481C16.24 31.6165 11.28 28.351 11.2 24.2955C11.2533 20.4243 16.24 17.1852 22.5333 17.1325C26.2667 17.1852 29.76 18.4756 31.8133 20.5823L32.0267 20.9247H33.4933L33.28 20.5823C31.2267 17.8172 27.0933 16.0001 22.5333 16.0001C15.5467 15.9738 10 19.7396 10 24.2691V24.5588V39.1744C10.24 43.5986 15.6533 47.2064 22.48 47.2064C26.9867 47.2328 31.0667 45.4684 33.2267 42.9139Z" fill="#D1D1D1"/>
<path d="M30.5065 53.0002L32.8532 43.1511L26.1065 46.0479L30.2132 28.9832H22.3198L24.3732 20.5825H49.5732L47.5198 28.9832H39.3065L37.5465 33.6181L46.6398 29.8522L30.5065 53.0002ZM34.6132 41.1497L33.4398 46.9433L43.1198 32.4857L35.1998 35.9618L38.7198 27.8508H46.6398L48.1065 21.7676H25.2265L23.7598 27.8508H31.6798L27.8665 44.0465L34.6132 41.1497Z" fill="#D1D1D1"/>
<path d="M66.2934 26.2177V26.2441C66.32 27.1658 66.0267 27.8768 65.44 28.4035C64.8534 28.9302 64.0534 29.1935 63.0134 29.1935C61.9734 29.1935 61.12 28.8512 60.48 28.1928C59.84 27.5344 59.52 26.6654 59.52 25.612V23.9003C59.52 22.8469 59.84 21.9779 60.4534 21.3195C61.0934 20.6612 61.92 20.3188 62.9334 20.3188C64 20.3188 64.8267 20.5822 65.44 21.0825C66.0534 21.6092 66.3467 22.3202 66.32 23.2419V23.2683H64.6134C64.6134 22.7152 64.48 22.2939 64.2134 22.0306C63.9467 21.7672 63.52 21.6355 62.96 21.6355C62.4267 21.6355 62.0267 21.8462 61.7334 22.2676C61.44 22.6889 61.28 23.2156 61.28 23.874V25.612C61.28 26.2704 61.44 26.8234 61.7334 27.2448C62.0534 27.6661 62.48 27.8768 63.04 27.8768C63.5734 27.8768 63.9467 27.7451 64.2134 27.4818C64.48 27.2184 64.6134 26.7971 64.6134 26.2441H66.2934V26.2177ZM75.9467 25.533C75.9467 26.5864 75.6 27.4818 74.9334 28.1665C74.2667 28.8512 73.3867 29.1935 72.2934 29.1935C71.2 29.1935 70.3467 28.8512 69.6534 28.1665C68.9867 27.4818 68.64 26.5864 68.64 25.533V23.9793C68.64 22.9259 68.9867 22.0569 69.6534 21.3459C70.32 20.6612 71.2 20.2925 72.2667 20.2925C73.36 20.2925 74.24 20.6348 74.9067 21.3459C75.6 22.0306 75.92 22.9259 75.92 23.9793V25.533H75.9467ZM74.1867 23.953C74.1867 23.2683 74.0267 22.7416 73.68 22.2939C73.3333 21.8725 72.88 21.6355 72.2667 21.6355C71.68 21.6355 71.2 21.8462 70.88 22.2939C70.56 22.7152 70.3734 23.2683 70.3734 23.953V25.5067C70.3734 26.1914 70.5334 26.7444 70.88 27.1921C71.2 27.6134 71.68 27.8505 72.2667 27.8505C72.88 27.8505 73.3333 27.6398 73.68 27.1921C74.0267 26.7707 74.1867 26.1914 74.1867 25.5067V23.953ZM80.48 29.0618H78.72V20.4242H80.48V29.0618ZM90.5867 29.0618H88.8267L85.3067 23.2419H85.28V29.0618H83.52V20.4242H85.28L88.8 26.2441H88.8267V20.4242H90.5867V29.0618ZM99.4133 21.7672H96.9067V29.0618H95.1467V21.7672H92.6934V20.4242H99.4133V21.7672ZM106.667 25.2697H103.413V27.7451H107.28V29.0618H101.68V20.4242H107.28V21.7672H103.44V23.9266H106.693V25.2697H106.667ZM111.547 27.7451H115.467V29.0618H109.787V20.4242H111.547V27.7451ZM122.933 25.2697H119.68V27.7451H123.547V29.0618H117.947V20.4242H123.547V21.7672H119.707V23.9266H122.96V25.2697H122.933ZM132.773 27.9031C132.507 28.2455 132.107 28.5615 131.547 28.8248C131.013 29.0882 130.32 29.2198 129.467 29.2198C128.4 29.2198 127.547 28.9038 126.88 28.2455C126.213 27.5871 125.867 26.7444 125.867 25.691V23.874C125.867 22.8206 126.187 21.9779 126.853 21.3195C127.493 20.6612 128.347 20.3188 129.36 20.3188C130.427 20.3188 131.253 20.5822 131.813 21.0825C132.373 21.5829 132.667 22.2412 132.64 23.0839V23.1103H130.987C130.987 22.6626 130.853 22.2939 130.587 22.0306C130.32 21.7672 129.92 21.6355 129.413 21.6355C128.88 21.6355 128.453 21.8462 128.107 22.2412C127.787 22.6626 127.627 23.1893 127.627 23.8213V25.6384C127.627 26.2967 127.787 26.8234 128.133 27.2448C128.48 27.6661 128.933 27.8505 129.493 27.8505C129.92 27.8505 130.24 27.7978 130.48 27.7188C130.72 27.6398 130.907 27.5344 131.04 27.4028V25.7174H129.36V24.506H132.8V27.9031H132.773ZM137.307 25.612V29.0618H135.547V20.4242H138.587C139.573 20.4242 140.373 20.6612 140.933 21.1088C141.493 21.5565 141.787 22.1886 141.787 22.9786C141.787 23.4263 141.68 23.795 141.44 24.1373C141.2 24.4533 140.853 24.7167 140.4 24.9273C140.907 25.0853 141.28 25.3224 141.52 25.691C141.733 26.0334 141.867 26.4811 141.867 27.0078V27.6398C141.867 27.8768 141.893 28.1401 141.973 28.4035C142.027 28.6668 142.16 28.8512 142.32 28.9828V29.1145H140.507C140.347 28.9828 140.24 28.7722 140.187 28.4825C140.133 28.1928 140.107 27.9031 140.107 27.6398V27.0341C140.107 26.6127 140 26.2704 139.76 26.0334C139.52 25.7964 139.173 25.6647 138.747 25.6647H137.307V25.612ZM137.307 24.2953H138.56C139.04 24.2953 139.413 24.19 139.653 23.9793C139.893 23.7686 140.027 23.4789 140.027 23.0576C140.027 22.6626 139.893 22.3466 139.653 22.1096C139.413 21.8725 139.067 21.7672 138.587 21.7672H137.307V24.2953ZM149.227 27.2184H146.4L145.813 29.0882H143.973L146.933 20.4505H148.72L151.653 29.0882H149.813L149.227 27.2184ZM146.827 25.849H148.8L147.84 22.7943H147.813L146.827 25.849ZM155.547 25.928V29.0618H153.787V20.4242H157.147C158.16 20.4242 158.933 20.6875 159.52 21.1878C160.107 21.6882 160.373 22.3729 160.373 23.1893C160.373 24.0056 160.08 24.6903 159.52 25.1907C158.933 25.691 158.16 25.9544 157.147 25.9544H155.547V25.928ZM155.547 24.6113H157.147C157.627 24.6113 158 24.4797 158.267 24.2163C158.507 23.953 158.64 23.6106 158.64 23.2156C158.64 22.7943 158.507 22.4519 158.267 22.1886C158.027 21.9252 157.653 21.7935 157.147 21.7935H155.547V24.6113ZM170 29.0618H168.24V25.4804H164.667V29.0618H162.907V20.4242H164.667V24.1373H168.24V20.4242H170V29.0618Z" fill="#D1D1D1"/>
<path d="M62.72 43.1772H61.6267V37.489H59.6533V36.5673H64.6933V37.489H62.72V43.1772ZM70.0533 43.1772H68.96V40.0961C68.96 39.7011 68.88 39.4114 68.72 39.2271C68.56 39.0427 68.32 38.9374 67.9733 38.9374C67.52 38.9374 67.2 39.069 66.9867 39.3324C66.7733 39.5957 66.6667 40.0434 66.6667 40.6755V43.1509H65.6V36.1196H66.6667V37.9103C66.6667 38.2 66.64 38.4897 66.6133 38.832H66.6933C66.8267 38.595 67.04 38.4107 67.3067 38.279C67.5733 38.1473 67.8667 38.0683 68.2133 38.0683C69.44 38.0683 70.0533 38.674 70.0533 39.9118V43.1772ZM73.76 43.2562C72.96 43.2562 72.3467 43.0192 71.92 42.5715C71.4667 42.1238 71.2533 41.4918 71.2533 40.7018C71.2533 39.8854 71.4667 39.2534 71.8667 38.7794C72.2667 38.3053 72.8533 38.0683 73.5733 38.0683C74.24 38.0683 74.7733 38.279 75.1467 38.674C75.5467 39.069 75.7333 39.6221 75.7333 40.3331V40.9125H72.3467C72.3733 41.3865 72.5067 41.7815 72.7467 42.0185C72.9867 42.2819 73.36 42.4135 73.8133 42.4135C74.1067 42.4135 74.4 42.3872 74.64 42.3345C74.9067 42.2818 75.1733 42.1765 75.4667 42.0448V42.9139C75.2 43.0455 74.9333 43.1246 74.6667 43.1772C74.4267 43.2299 74.1067 43.2562 73.76 43.2562ZM73.5733 38.8847C73.2267 38.8847 72.96 38.99 72.7467 39.2007C72.5333 39.4114 72.4267 39.7274 72.3733 40.1488H74.6667C74.6667 39.7274 74.56 39.4114 74.3733 39.2007C74.1867 38.99 73.92 38.8847 73.5733 38.8847ZM81.92 38.9637H80.6933V43.1772H79.6V38.9637H78.7733V38.4634L79.6 38.1473V37.8313C79.6 37.252 79.7333 36.8043 80.0267 36.5146C80.32 36.2249 80.7467 36.0933 81.3067 36.0933C81.68 36.0933 82.0533 36.1459 82.4267 36.2776L82.1333 37.094C81.8667 37.015 81.6267 36.9623 81.36 36.9623C81.12 36.9623 80.9333 37.0413 80.8267 37.173C80.72 37.331 80.6667 37.5417 80.6667 37.8313V38.1473H81.8933V38.9637H81.92ZM86.3733 43.1772L86.2133 42.5189H86.16C86 42.7559 85.7867 42.9402 85.52 43.0719C85.2533 43.2036 84.9333 43.2826 84.5867 43.2826C83.9733 43.2826 83.52 43.1246 83.2 42.8349C82.88 42.5452 82.7467 42.0712 82.7467 41.4655V38.1737H83.84V41.2548C83.84 41.6498 83.92 41.9132 84.08 42.1238C84.24 42.3082 84.48 42.4135 84.8267 42.4135C85.28 42.4135 85.6 42.2819 85.8133 42.0185C86.0267 41.7552 86.1333 41.3075 86.1333 40.6755V38.1737H87.2267V43.1772H86.3733ZM90.64 42.3872C90.9067 42.3872 91.1733 42.3345 91.44 42.2555V43.0455C91.3333 43.0982 91.1733 43.1509 90.9867 43.1772C90.8 43.2036 90.6133 43.2299 90.4 43.2299C89.3867 43.2299 88.88 42.7032 88.88 41.6498V38.9637H88.1867V38.4897L88.9333 38.0947L89.3067 37.0413H89.9733V38.1473H91.4133V38.9637H89.9733V41.6498C89.9733 41.9132 90.0267 42.0975 90.16 42.2292C90.24 42.3345 90.4267 42.3872 90.64 42.3872ZM96 43.1772L95.84 42.5189H95.7867C95.6267 42.7559 95.4133 42.9402 95.1467 43.0719C94.88 43.2036 94.56 43.2826 94.2133 43.2826C93.6 43.2826 93.1467 43.1246 92.8267 42.8349C92.5333 42.5452 92.3733 42.0712 92.3733 41.4655V38.1737H93.4667V41.2548C93.4667 41.6498 93.5467 41.9132 93.7067 42.1238C93.8667 42.3082 94.1067 42.4135 94.4533 42.4135C94.9067 42.4135 95.2267 42.2819 95.44 42.0185C95.6533 41.7552 95.76 41.3075 95.76 40.6755V38.1737H96.8533V43.1772H96ZM100.96 38.0683C101.173 38.0683 101.36 38.0947 101.493 38.121L101.387 39.1217C101.227 39.0954 101.067 39.069 100.907 39.069C100.48 39.069 100.133 39.2007 99.8667 39.4904C99.6 39.7801 99.4667 40.1224 99.4667 40.5701V43.1772H98.4V38.1737H99.2533L99.3867 39.0427H99.44C99.6 38.753 99.84 38.516 100.107 38.3317C100.347 38.1737 100.64 38.0683 100.96 38.0683ZM104.453 43.2562C103.653 43.2562 103.04 43.0192 102.613 42.5715C102.16 42.1238 101.947 41.4918 101.947 40.7018C101.947 39.8854 102.16 39.2534 102.56 38.7794C102.96 38.3053 103.547 38.0683 104.267 38.0683C104.933 38.0683 105.467 38.279 105.84 38.674C106.24 39.069 106.427 39.6221 106.427 40.3331V40.9125H103.04C103.067 41.3865 103.2 41.7815 103.44 42.0185C103.68 42.2819 104.053 42.4135 104.507 42.4135C104.8 42.4135 105.093 42.3872 105.333 42.3345C105.6 42.2818 105.867 42.1765 106.16 42.0448V42.9139C105.893 43.0455 105.627 43.1246 105.36 43.1772C105.093 43.2299 104.8 43.2562 104.453 43.2562ZM104.267 38.8847C103.92 38.8847 103.653 38.99 103.44 39.2007C103.227 39.4114 103.12 39.7274 103.067 40.1488H105.36C105.36 39.7274 105.253 39.4114 105.067 39.2007C104.853 38.99 104.587 38.8847 104.267 38.8847ZM114.56 40.6491C114.56 41.4655 114.347 42.0975 113.92 42.5715C113.493 43.0192 112.907 43.2562 112.16 43.2562C111.68 43.2562 111.28 43.1509 110.907 42.9402C110.533 42.7295 110.267 42.4135 110.08 42.0185C109.893 41.6235 109.787 41.1758 109.787 40.6491C109.787 39.8327 110 39.2007 110.427 38.753C110.853 38.3054 111.44 38.0683 112.213 38.0683C112.933 38.0683 113.52 38.3053 113.947 38.7794C114.373 39.2534 114.56 39.8591 114.56 40.6491ZM110.88 40.6491C110.88 41.8078 111.307 42.3872 112.187 42.3872C113.04 42.3872 113.467 41.8078 113.467 40.6491C113.467 39.5167 113.04 38.9374 112.187 38.9374C111.733 38.9374 111.413 39.0954 111.2 39.3851C110.987 39.6747 110.88 40.0961 110.88 40.6491ZM118.347 38.9637H117.12V43.1772H116.027V38.9637H115.2V38.4634L116.027 38.1473V37.8313C116.027 37.252 116.16 36.8043 116.453 36.5146C116.747 36.2249 117.173 36.0933 117.733 36.0933C118.107 36.0933 118.48 36.1459 118.853 36.2776L118.56 37.094C118.293 37.015 118.053 36.9623 117.787 36.9623C117.547 36.9623 117.36 37.0413 117.253 37.173C117.147 37.3046 117.093 37.5417 117.093 37.8313V38.1473H118.32V38.9637H118.347ZM125.92 43.1772H124.827V40.0961C124.827 39.7011 124.747 39.4377 124.613 39.2271C124.48 39.0427 124.24 38.9374 123.92 38.9374C123.493 38.9374 123.2 39.069 123.013 39.3324C122.827 39.5957 122.72 40.0434 122.72 40.6755V43.1772H121.653V38.1737H122.507L122.667 38.832H122.72C122.853 38.595 123.067 38.4107 123.333 38.279C123.6 38.1473 123.893 38.0947 124.213 38.0947C124.987 38.0947 125.52 38.358 125.76 38.8847H125.84C126 38.6477 126.213 38.437 126.48 38.3054C126.747 38.1737 127.067 38.0947 127.413 38.0947C128.027 38.0947 128.453 38.2527 128.747 38.5424C129.013 38.832 129.173 39.3061 129.173 39.9118V43.1772H128.107V40.0961C128.107 39.7011 128.027 39.4377 127.893 39.2271C127.733 39.0427 127.52 38.9374 127.2 38.9374C126.773 38.9374 126.48 39.069 126.293 39.3324C126.107 39.5957 126 39.9908 126 40.5174V43.1772H125.92ZM135.093 40.6491C135.093 41.4655 134.88 42.0975 134.453 42.5715C134.027 43.0192 133.44 43.2562 132.693 43.2562C132.213 43.2562 131.813 43.1509 131.44 42.9402C131.067 42.7295 130.8 42.4135 130.613 42.0185C130.427 41.6235 130.32 41.1758 130.32 40.6491C130.32 39.8327 130.533 39.2007 130.96 38.753C131.387 38.3054 131.973 38.0683 132.747 38.0683C133.467 38.0683 134.053 38.3053 134.48 38.7794C134.88 39.2534 135.093 39.8591 135.093 40.6491ZM131.413 40.6491C131.413 41.8078 131.84 42.3872 132.72 42.3872C133.573 42.3872 134 41.8078 134 40.6491C134 39.5167 133.573 38.9374 132.72 38.9374C132.267 38.9374 131.947 39.0954 131.733 39.3851C131.52 39.6747 131.413 40.0961 131.413 40.6491ZM140.8 43.1772H139.707V40.0961C139.707 39.7011 139.627 39.4114 139.467 39.2271C139.307 39.0427 139.067 38.9374 138.72 38.9374C138.267 38.9374 137.92 39.069 137.733 39.3324C137.547 39.5957 137.413 40.0434 137.413 40.6755V43.1772H136.347V38.1737H137.2L137.36 38.832H137.413C137.573 38.595 137.787 38.4107 138.053 38.279C138.32 38.1473 138.64 38.0947 138.987 38.0947C140.213 38.0947 140.8 38.7004 140.8 39.9381V43.1772ZM144.507 43.2562C143.707 43.2562 143.093 43.0192 142.667 42.5715C142.213 42.1238 142 41.4918 142 40.7018C142 39.8854 142.213 39.2534 142.613 38.7794C143.013 38.3053 143.6 38.0683 144.32 38.0683C144.987 38.0683 145.52 38.279 145.893 38.674C146.293 39.069 146.48 39.6221 146.48 40.3331V40.9125H143.093C143.12 41.3865 143.253 41.7815 143.493 42.0185C143.733 42.2819 144.107 42.4135 144.56 42.4135C144.853 42.4135 145.147 42.3872 145.387 42.3345C145.627 42.2818 145.92 42.1765 146.213 42.0448V42.9139C145.947 43.0455 145.68 43.1246 145.413 43.1772C145.147 43.2299 144.853 43.2562 144.507 43.2562ZM144.293 38.8847C143.947 38.8847 143.68 38.99 143.467 39.2007C143.253 39.4114 143.147 39.7274 143.093 40.1488H145.387C145.387 39.7274 145.28 39.4114 145.093 39.2007C144.907 38.99 144.64 38.8847 144.293 38.8847ZM146.747 38.1737H147.92L148.96 41.0178C149.12 41.4128 149.227 41.8078 149.28 42.1502H149.307C149.333 41.9922 149.387 41.7815 149.467 41.5445C149.547 41.3075 149.92 40.1751 150.64 38.1737H151.813L149.653 43.8356C149.253 44.8626 148.613 45.3893 147.68 45.3893C147.44 45.3893 147.2 45.363 146.987 45.3103V44.4676C147.147 44.4939 147.333 44.5203 147.547 44.5203C148.053 44.5203 148.427 44.2306 148.64 43.6249L148.827 43.1509L146.747 38.1737Z" fill="#D1D1D1"/>
</svg>
