<svg width="180" height="68" viewBox="0 0 180 68" fill="none" xmlns="http://www.w3.org/2000/svg">
<g clip-path="url(#clip0)">
<path d="M91.4869 38.3202H88.1485V38.1685L88.4824 38.1381C88.6948 38.1078 88.7858 38.0774 88.7858 37.8043V33.6465C88.7858 33.2519 88.5734 32.9788 88.1485 32.9788C87.6326 32.9788 87.2077 33.4037 87.2077 33.8286V37.7132C87.2077 38.0471 87.2987 38.0774 87.5415 38.1078L87.845 38.1381V38.2899H84.5673V38.1381L84.8708 38.0774C85.0226 38.0471 85.144 38.0471 85.144 37.7132V33.5554C85.144 32.9788 85.0226 32.7967 84.4459 32.7057V32.5539L87.1773 31.8862V32.9788C87.6933 32.4932 88.3306 31.8862 89.2411 31.8862C90.364 31.8862 90.8799 32.5843 90.8799 33.4644V37.7132C90.8799 38.0167 91.0013 38.0471 91.2138 38.0774L91.5173 38.1078L91.4869 38.3202Z" fill="#D1D1D1"/>
<path d="M83.748 30.4294C83.748 31.006 83.2624 31.4916 82.6251 31.4916C81.9877 31.4916 81.5325 31.0364 81.5325 30.4294C81.5325 29.8528 81.9877 29.3672 82.6251 29.3672C83.2927 29.3672 83.748 29.8224 83.748 30.4294Z" fill="#D1D1D1"/>
<path d="M84.3245 38.3201H81.0165V38.1684C81.1075 38.1381 81.32 38.1381 81.32 38.1381C81.5324 38.1077 81.6538 38.0774 81.6538 37.7739V33.5857C81.6538 33.0091 81.5324 32.7966 80.9558 32.7359V32.5842L83.7176 31.9165V37.6828C83.7176 38.047 83.8086 38.0774 84.1121 38.1381L84.3549 38.1684L84.3245 38.3201Z" fill="#D1D1D1"/>
<path d="M80.7736 38.3202H77.4352V38.1684L77.7691 38.1381C77.9815 38.1077 78.0726 38.0167 78.0726 37.7739V33.6768C78.0726 33.1912 77.8298 32.9787 77.4352 32.9787C76.9496 32.9787 76.4944 33.4036 76.4944 33.7981V37.7435C76.4944 38.0774 76.6158 38.1077 76.8282 38.1381L77.1317 38.1684V38.3202H73.7933V38.1684L74.1575 38.1077C74.3396 38.0774 74.4003 37.9863 74.4003 37.8346V30.6722C74.4003 29.9438 74.1879 29.8831 73.7023 29.7921V29.6403L76.4641 28.9727V33.0091C76.8889 32.4931 77.7084 31.9165 78.4974 31.9165C79.4079 31.9165 80.1363 32.4324 80.1363 33.4947V37.7435C80.1363 38.0774 80.2577 38.0774 80.5005 38.1077L80.7736 38.1381V38.3202Z" fill="#D1D1D1"/>
<path d="M73.5506 36.8636C73.1257 37.5313 72.1849 38.5328 70.4853 38.5328C67.5415 38.5328 65.9633 36.8029 65.9633 34.1322C65.9633 30.8545 68.1181 29.4888 70.455 29.4888C71.6386 29.4888 72.2759 29.8833 72.7311 29.8833C72.8829 29.8833 73.0953 29.853 73.2471 29.7923L73.2774 31.9167H73.0043L72.1849 30.3992C71.851 30.1261 71.3654 29.9744 70.5764 29.9744C69.1196 29.9744 68.2698 31.6132 68.2698 33.7983C68.2698 36.2869 69.4231 37.6527 70.8798 37.6527C72.458 37.6527 73.0043 37.0153 73.3381 36.6511L73.5506 36.8636Z" fill="#D1D1D1"/>
<path d="M64.0819 38.3202H60.7435V38.1684L61.0774 38.1381C61.2898 38.1077 61.3809 38.0167 61.3809 37.7739V33.6768C61.3809 33.1912 61.1381 32.9787 60.7435 32.9787C60.258 32.9787 59.8027 33.4036 59.8027 33.7981V37.7435C59.8027 38.0774 59.9241 38.1077 60.1366 38.1381L60.4401 38.1684V38.3202H57.1017V38.1684L57.4962 38.1077C57.6783 38.0774 57.739 37.9863 57.739 37.8346V30.6722C57.739 29.9438 57.5266 29.8831 57.041 29.7921V29.6403L59.8027 28.9727V33.0091C60.2276 32.4931 61.047 31.9165 61.8361 31.9165C62.7466 31.9165 63.475 32.4324 63.475 33.4947V37.7435C63.475 38.0774 63.5964 38.0774 63.8391 38.1077L64.1123 38.1381L64.0819 38.3202Z" fill="#D1D1D1"/>
<path d="M57.4659 37.258C57.132 37.8346 56.3733 38.4416 55.22 38.4416C54.0971 38.4416 53.5508 37.6828 53.5508 36.8938V32.6449H52.7921V32.4932L55.4932 30.3384H55.6449V32.129H57.1927L57.0106 32.6449H55.6449V36.7117C55.6449 37.258 55.9484 37.5007 56.3429 37.5007C56.7071 37.5007 57.1017 37.258 57.3748 37.0455L57.4659 37.258Z" fill="#D1D1D1"/>
<path d="M52.9436 38.1382L50.2729 38.381V37.3491C49.8481 37.8347 49.0286 38.4417 48.2092 38.4417C47.147 38.4417 46.6007 37.7437 46.6007 36.8332V33.4948C46.6007 32.9182 46.3883 32.7361 45.9027 32.6754V32.5236L48.6644 31.856V36.4994C48.6644 36.9849 48.8465 37.2581 49.3018 37.2581C49.6053 37.2581 49.7267 37.1974 49.9391 37.076C50.2122 36.8939 50.2426 36.7725 50.2426 36.4387V33.4948C50.2426 32.9182 50.0605 32.7664 49.5446 32.6754V32.5236L52.3063 31.856V37.4402C52.3063 37.8651 52.6402 37.8954 52.9436 37.9561V38.1382V38.1382Z" fill="#D1D1D1"/>
<path d="M39.2867 35.5282C39.2867 37.3188 37.8299 38.4721 35.7965 38.4721C34.7343 38.4721 33.7328 38.1686 33.1865 37.774V35.8014H33.4293L34.188 37.4402C34.6433 37.7134 35.0985 37.9865 35.8876 37.9865C36.9498 37.9865 37.5264 37.2885 37.5264 36.4994C37.5264 35.771 36.9801 35.2247 35.6751 34.7998C34.0363 34.2839 33.1258 33.5555 33.1258 32.1291C33.1258 30.6117 34.6433 29.4888 36.3428 29.4888C37.405 29.4888 38.1637 29.944 38.4065 29.944C38.4976 29.944 38.6493 29.9137 38.7404 29.9137V31.8863H38.4976L37.6782 30.4296C37.4354 30.1564 36.7677 30.0351 36.2518 30.0351C35.3413 30.0351 34.6736 30.551 34.6736 31.2794C34.6736 32.0077 35.1592 32.3719 36.6766 32.8575C38.4672 33.4341 39.2867 34.1322 39.2867 35.5282Z" fill="#D1D1D1"/>
<path d="M98.0726 37.5918C97.9208 37.865 97.3138 38.4416 96.4034 38.4416C95.4929 38.4416 95.1591 37.956 95.068 37.4097C94.7038 37.956 94.2182 38.4416 93.156 38.4416C92.0635 38.4416 91.4565 37.8043 91.4565 36.8938C91.4565 35.953 92.0028 35.4371 93.4292 34.8908C94.37 34.5266 95.0073 34.4052 95.0073 33.4037C95.0073 32.5539 94.6735 32.2504 94.2486 32.2504C93.672 32.2504 93.3381 32.6146 93.2774 32.7057C93.3685 32.7664 93.763 32.9181 93.763 33.4644C93.763 34.0107 93.3078 34.3445 92.7615 34.3445C92.1849 34.3445 91.9117 33.8893 91.9117 33.4037C91.9117 32.5539 93.065 31.8862 94.8252 31.8862C96.3123 31.8862 97.0407 32.5843 97.0407 33.7982V37.0456C97.0407 37.5311 97.1014 37.7436 97.4049 37.7436C97.587 37.7436 97.7691 37.6222 97.9208 37.4704L98.0726 37.5918ZM95.0073 36.6814V34.5266C94.4307 35.2246 93.4899 35.255 93.4899 36.6814C93.4899 37.1973 93.7326 37.5615 94.1879 37.5615C94.6128 37.5615 95.0073 37.0456 95.0073 36.6814Z" fill="#D1D1D1"/>
<path d="M45.9026 35.1943C45.9026 37.1063 44.5369 38.4416 42.807 38.4416C41.0771 38.4416 39.7114 37.1063 39.7114 35.1639C39.7114 33.2519 41.1075 31.8862 42.807 31.8862C44.5369 31.9166 45.9026 33.2519 45.9026 35.1943ZM43.8085 35.1943C43.8085 32.9788 43.5961 32.2201 42.8374 32.2201C42.0483 32.2201 41.8662 32.9788 41.8662 35.1639C41.8662 37.2277 42.0483 38.1078 42.8374 38.1078C43.5961 38.1381 43.8085 37.258 43.8085 35.1943Z" fill="#D1D1D1"/>
<path d="M170 37.258C169.666 37.8346 168.938 38.4719 167.754 38.4719C166.631 38.4719 166.085 37.7132 166.085 36.9241V32.6449H165.326V32.4932L168.027 30.3384H168.179V32.129H169.727L169.545 32.6449H168.179V36.742C168.179 37.2883 168.483 37.5007 168.877 37.5007C169.241 37.5007 169.545 37.2883 169.848 37.0455L170 37.258Z" fill="#D1D1D1"/>
<path d="M165.326 36.2261C165.326 37.5918 164.112 38.4415 162.595 38.4415C161.259 38.4415 160.713 38.0774 160.44 37.956V36.3171H160.592L161.32 37.6828C161.624 37.8953 162.17 38.0774 162.625 38.0774C163.354 38.0774 163.839 37.7132 163.839 37.1062C163.839 36.4385 163.02 36.2261 162.17 35.9529C161.229 35.6191 160.379 35.1031 160.379 34.0106C160.379 32.6752 161.563 31.9165 162.898 31.9165C164.021 31.9165 164.537 32.3414 164.841 32.2503V33.8285H164.689L163.961 32.6449C163.718 32.4628 163.323 32.311 162.898 32.311C162.049 32.311 161.654 32.6145 161.654 33.1305C161.654 33.7071 162.443 33.9195 163.323 34.2534C164.416 34.5872 165.326 35.0121 165.326 36.2261Z" fill="#D1D1D1"/>
<path d="M138.649 38.3201H135.311V38.1684L135.614 38.1381C135.827 38.1077 135.918 38.0774 135.918 37.8042V33.6464C135.918 33.2519 135.706 32.918 135.281 32.918C134.734 32.918 134.309 33.3733 134.309 33.8285V37.7132C134.309 38.047 134.401 38.0774 134.643 38.1077L134.947 38.1381V38.2898H131.699V38.1381L132.003 38.0774C132.155 38.047 132.276 38.047 132.276 37.7132V33.5857C132.276 33.0091 132.155 32.827 131.578 32.7359V32.5842L134.309 31.9165V33.0091C134.825 32.5235 135.463 31.9165 136.373 31.9165C137.496 31.9165 138.012 32.5842 138.012 33.4947V37.7435C138.012 38.047 138.133 38.0774 138.346 38.1077L138.619 38.1381V38.3201H138.649Z" fill="#D1D1D1"/>
<path d="M130.941 30.4294C130.941 31.006 130.455 31.4916 129.818 31.4916C129.18 31.4916 128.725 31.0364 128.725 30.4294C128.725 29.8528 129.18 29.3672 129.818 29.3672C130.455 29.3672 130.941 29.8528 130.941 30.4294Z" fill="#D1D1D1"/>
<path d="M131.518 38.3201H128.21V38.1684C128.331 38.1381 128.513 38.1381 128.513 38.1381C128.725 38.1077 128.847 38.0774 128.847 37.7739V33.5857C128.847 33.0091 128.695 32.7966 128.149 32.7359V32.5842L130.911 31.9165V37.6828C130.911 38.0774 131.002 38.1077 131.305 38.1381L131.548 38.1684L131.518 38.3201Z" fill="#D1D1D1"/>
<path d="M128.027 38.3201H124.689V38.1684L124.992 38.1381C125.205 38.1077 125.296 38.0774 125.296 37.8042V33.6464C125.296 33.2519 125.083 32.9787 124.659 32.9787C124.143 32.9787 123.687 33.4036 123.687 33.8285V37.7132C123.687 38.047 123.778 38.0774 124.021 38.1077L124.325 38.1381V38.2898H121.077V38.1381L121.381 38.0774C121.533 38.047 121.654 38.047 121.654 37.7132V33.5857C121.654 33.0091 121.533 32.7966 120.956 32.7359V32.5842L123.687 31.9165V33.0091C124.203 32.5235 124.841 31.9165 125.751 31.9165C126.874 31.9165 127.39 32.5842 127.39 33.4947V37.7435C127.39 38.047 127.511 38.0774 127.724 38.1077L128.027 38.1381V38.3201Z" fill="#D1D1D1"/>
<path d="M121.047 32.7966C121.047 33.3733 120.713 33.7678 120.106 33.7678C119.681 33.7678 119.378 33.4947 119.378 33.1305C119.378 33.0091 119.408 32.8573 119.499 32.7359C119.196 32.7359 118.498 33.2215 118.498 33.7374V37.7435C118.498 38.047 118.619 38.1077 118.862 38.1381L119.196 38.1684V38.3201H115.797V38.1684L116.07 38.1381C116.343 38.1077 116.434 38.0774 116.434 37.7132V33.525C116.434 32.9484 116.222 32.7966 115.736 32.7359V32.5842L118.467 31.9165V32.918C118.923 32.311 119.56 31.9165 120.137 31.9165C120.683 31.9165 121.047 32.2503 121.047 32.7966Z" fill="#D1D1D1"/>
<path d="M109.757 38.3204H105.66V38.1686L106.146 38.1079C106.51 38.0776 106.601 38.0169 106.601 37.6223C106.601 37.5616 106.601 37.5009 106.601 37.4706L106.449 31.5222H106.419L103.93 38.4114H103.536L101.108 31.5829H101.077L100.986 36.9547C100.986 37.0761 100.986 37.1975 100.986 37.2885C100.986 38.0169 101.168 38.1079 101.745 38.199V38.3507H99.5296V38.199C100.106 38.0776 100.41 37.8348 100.41 36.9547L100.592 30.8849C100.592 30.7938 100.592 30.7331 100.592 30.6421C100.592 30.2779 100.47 29.944 100.015 29.9137C100.015 29.9137 99.7724 29.8833 99.6206 29.8833V29.6709H102.686L104.507 35.1641H104.537L106.54 29.6709H109.241V29.8226C108.756 29.853 108.513 30.0047 108.513 30.3386C108.513 30.4296 108.513 30.7331 108.513 30.8545L108.756 37.592C108.756 37.9562 108.907 38.0776 109.272 38.1079L109.757 38.1686V38.3204Z" fill="#D1D1D1"/>
<path d="M159.894 35.1943C159.894 37.1063 158.498 38.4416 156.798 38.4416C155.068 38.4416 153.703 37.1063 153.703 35.1639C153.703 33.2519 155.099 31.8862 156.798 31.8862C158.528 31.9166 159.894 33.2823 159.894 35.1943ZM157.769 35.1943C157.769 32.9788 157.557 32.2201 156.798 32.2201C156.009 32.2201 155.827 32.9788 155.827 35.1639C155.827 37.2277 156.009 38.1078 156.798 38.1078C157.587 38.1381 157.769 37.258 157.769 35.1943Z" fill="#D1D1D1"/>
<path d="M154.188 32.0381C154.188 33.6163 152.701 34.4964 150.728 34.4964C150.425 34.4964 150.273 34.4964 149.909 34.466V37.6223C149.909 37.8955 150.03 38.0472 150.546 38.1079L150.911 38.1383V38.3204H146.844V38.1383L147.36 38.0776C147.694 38.0472 147.785 37.9562 147.785 37.6527V30.551C147.785 30.0351 147.511 29.944 146.844 29.853V29.6709H150.364C152.823 29.6709 154.188 30.2475 154.188 32.0381ZM151.942 32.0078C151.942 30.5814 151.426 30.0047 150.455 30.0047C150.213 30.0047 150.03 30.0351 149.879 30.0654V34.1019C149.97 34.1019 150.061 34.1322 150.425 34.1322C151.426 34.1626 151.942 33.5859 151.942 32.0078Z" fill="#D1D1D1"/>
<path d="M145.083 32.0683L144.689 32.827L143.657 32.7664C143.991 33.0698 144.264 33.4947 144.264 34.1321C144.264 35.4674 143.02 36.3779 141.502 36.3779C141.138 36.3779 140.743 36.3172 140.44 36.2565C140.379 36.3475 140.349 36.4689 140.349 36.5903C140.349 36.7421 140.652 36.8635 140.986 36.9242L142.777 37.258C144.355 37.5615 145.023 37.9864 145.023 38.9879C145.023 40.2929 143.293 41.1123 141.442 41.1123C139.742 41.1123 138.255 40.8088 138.255 39.868C138.255 39.0789 139.105 38.7451 139.833 38.563C139.256 38.3202 139.074 37.8346 139.074 37.5008C139.074 36.8331 139.59 36.4993 140.106 36.1351C139.256 35.7709 138.771 35.0729 138.771 34.1624C138.771 32.827 140.015 31.8862 141.533 31.8862C142.14 31.8862 142.504 32.0076 142.777 32.129L145.083 32.0683ZM142.231 34.1624C142.231 32.736 142.018 32.2201 141.472 32.2201C140.895 32.2201 140.743 32.736 140.743 34.1624C140.743 35.5585 140.926 36.044 141.472 36.044C142.018 36.044 142.231 35.5585 142.231 34.1624ZM143.323 39.8377C143.323 39.3824 142.959 39.2307 141.957 39.0486L140.258 38.7148C139.985 38.9575 139.681 39.1396 139.681 39.777C139.681 40.4143 140.379 40.8088 141.472 40.8088C142.655 40.8088 143.323 40.3233 143.323 39.8377Z" fill="#D1D1D1"/>
<path d="M115.645 35.1943C115.645 37.1063 114.249 38.4416 112.549 38.4416C110.819 38.4416 109.454 37.1063 109.454 35.1639C109.454 33.2519 110.85 31.8862 112.549 31.8862C114.249 31.9166 115.645 33.2823 115.645 35.1943ZM113.52 35.1943C113.52 32.9788 113.308 32.2201 112.549 32.2201C111.76 32.2201 111.578 32.9788 111.578 35.1639C111.578 37.2277 111.76 38.1078 112.549 38.1078C113.308 38.1381 113.52 37.258 113.52 35.1943Z" fill="#D1D1D1"/>
<path d="M17.9818 28.5176H11.5174V38.9576H17.9818V28.5176Z" fill="#D1D1D1"/>
<path d="M25.9331 28.5176H19.4688V38.9576H25.9331V28.5176Z" fill="#D1D1D1"/>
</g>
<defs>
<clipPath id="clip0">
<rect width="160" height="14.1426" fill="white" transform="translate(10 27)"/>
</clipPath>
</defs>
</svg>
