<svg viewBox="0 0 120 36" fill="none" xmlns="http://www.w3.org/2000/svg">
<path d="M23.2027 5.13874L13.7942 2.25L4.39658 5.13874C4.24436 5.1909 4.11879 5.3023 4.04749 5.44869C3.97604 5.59491 3.96468 5.76409 4.01595 5.91899C4.06706 6.07388 4.17669 6.20165 4.32039 6.27436C4.46425 6.34691 4.63051 6.35847 4.78273 6.30646L13.8214 3.53939L22.8873 6.30646C23.0333 6.33118 23.183 6.29988 23.3078 6.21882C23.4324 6.13777 23.5231 6.01241 23.5624 5.8673C23.6015 5.72204 23.5865 5.56731 23.5201 5.43264C23.4537 5.29813 23.3406 5.19347 23.2027 5.13874Z" fill="white"/>
<path fill-rule="evenodd" clip-rule="evenodd" d="M27.19 6.50166C27.2818 6.59412 27.3427 6.7137 27.364 6.84339C27.8714 10.3499 27.6996 13.9239 26.8582 17.3634C25.5203 22.7701 22.1321 29.0511 14.0996 33.0411L13.8332 33.1684L13.5721 33.0411C5.52868 29.0511 2.15134 22.7701 0.813481 17.3579C-0.0388312 13.9225 -0.223564 10.3507 0.269633 6.84339C0.292458 6.70824 0.357891 6.58449 0.456006 6.49059C0.554122 6.39669 0.679605 6.33794 0.813481 6.32317C0.93543 6.31387 1.05741 6.34067 1.16458 6.4007C1.27175 6.46057 1.3595 6.55094 1.41714 6.66073L6.8556 17.4796H20.7726L26.211 6.66073C26.27 6.54372 26.3637 6.44869 26.4789 6.38898C26.594 6.32927 26.7246 6.30808 26.8522 6.32831C26.98 6.34853 27.0982 6.40921 27.19 6.50166ZM1.22135 8.97949C1.05918 11.6958 1.3012 14.4217 1.93924 17.0645C2.63348 20.0056 3.92065 22.7676 5.71907 25.1758C7.51749 27.584 9.78787 29.5859 12.3865 31.0544L5.96373 18.3871L1.22135 8.97949ZM7.47553 18.7247L13.795 31.1706L20.1689 18.7247H7.47553ZM21.8736 25.1675C23.6725 22.7615 24.9623 20.0027 25.6618 17.0645C26.3104 14.4159 26.5563 11.6817 26.3905 8.95734L21.6535 18.365L15.209 31.0433C17.8054 29.5738 20.0745 27.5732 21.8736 25.1675Z" fill="white"/>
<path fill-rule="evenodd" clip-rule="evenodd" d="M36.84 29.7421C36.998 29.9069 37.1872 30.0372 37.3961 30.1249C37.605 30.2127 37.8292 30.2561 38.055 30.2524H46.5941V29.0701H38.055C37.9814 29.0728 37.9081 29.06 37.8395 29.0326C37.7709 29.005 37.7087 28.9633 37.6566 28.9101C37.6045 28.8569 37.5638 28.7932 37.5369 28.7232C37.5099 28.6532 37.4974 28.5782 37.5002 28.5029V21.4935C37.499 21.4203 37.5123 21.3476 37.5395 21.2798C37.5667 21.2121 37.6071 21.1506 37.6583 21.0994C37.7101 21.0446 37.7722 21.0011 37.8408 20.9714C37.9094 20.9417 37.9833 20.9264 38.0578 20.9264H46.5941V19.7412H38.055C37.8298 19.7401 37.6066 19.7846 37.3983 19.872C37.19 19.9595 37.0006 20.0883 36.8412 20.251C36.6818 20.4136 36.5556 20.6069 36.4696 20.8197C36.3837 21.0325 36.3399 21.2605 36.3406 21.4907V28.5029C36.3374 28.7333 36.38 28.9618 36.4659 29.1748C36.5516 29.3879 36.6789 29.5808 36.84 29.7421ZM53.2078 19.7441V30.2524H62.593V29.0701H54.3674V25.5965H60.9757V24.3999H54.3674V20.9264H62.593V19.7412L53.2078 19.7441ZM69.1957 30.2524V19.7611H77.7653C78.2189 19.7648 78.6528 19.9506 78.9736 20.2784C79.2943 20.6062 79.4761 21.0498 79.4797 21.5134V24.5899C79.4819 24.8205 79.4387 25.0492 79.353 25.2626C79.2672 25.4758 79.1405 25.6694 78.9804 25.8319C78.8223 25.9968 78.633 26.127 78.4241 26.2148C78.2152 26.3026 77.9911 26.3459 77.7653 26.3423H76.1951L79.4214 30.2326H77.8929L74.6831 26.3423L70.3553 26.3253V30.2524H69.1957ZM70.9101 25.1485H77.7653C77.8368 25.1493 77.9079 25.1354 77.9741 25.1076C78.0403 25.0798 78.1004 25.0388 78.1509 24.9869C78.2022 24.9357 78.2427 24.8744 78.2699 24.8065C78.2971 24.7388 78.3104 24.666 78.309 24.5928V21.5105C78.3104 21.4373 78.2971 21.3646 78.2699 21.2968C78.2427 21.2289 78.2022 21.1676 78.1509 21.1164C78.1028 21.0604 78.0435 21.0157 77.9769 20.9853C77.9104 20.955 77.8381 20.9398 77.7653 20.9407H70.9101C70.8354 20.9409 70.7615 20.9566 70.6929 20.9869C70.6242 21.0171 70.5623 21.0612 70.5107 21.1164C70.4602 21.1682 70.4205 21.2297 70.3938 21.2974C70.3671 21.3651 70.354 21.4376 70.3553 21.5105V24.5899C70.354 24.6629 70.3671 24.7354 70.3938 24.8031C70.4205 24.8709 70.4602 24.9324 70.5107 24.984C70.6192 25.0872 70.7619 25.145 70.9101 25.1457V25.1485ZM90.1462 20.9264V30.2524H91.3066V20.9264H95.8642V19.7412H85.5806V20.9237L90.1462 20.9264ZM101.968 19.7412H103.138V30.2496H101.968V19.7412ZM110.19 19.7412V30.2496H111.361V25.5965H114.673L118.502 30.2524H120L115.692 24.9983L120 19.7582H118.515L114.688 24.4142H111.364V19.7412H110.19Z" fill="white"/>
<path d="M42.2117 12.6389L39.6809 6.60191H38.9327L36.3976 12.6389H37.225L37.7928 11.2717H40.8164L41.3842 12.6389H42.2117ZM39.276 7.70721L39.3024 7.60511H39.3112L39.3332 7.70721L40.5392 10.6058H38.07L39.276 7.70721Z" fill="white"/>
<path d="M46.8136 12.7632C48.2617 12.7632 49.2916 11.7555 49.2916 10.2996V6.59747H48.5125V10.2507C48.5125 11.2362 47.8787 12.0352 46.8136 12.0352C45.7221 12.0352 45.1103 11.2229 45.1103 10.2418V6.59747H44.3357V10.2996C44.3357 11.7955 45.4184 12.7632 46.8136 12.7632Z" fill="white"/>
<path d="M54.809 12.6389C56.6972 12.6389 57.9515 11.4315 57.9515 9.61596C57.9515 7.80931 56.6884 6.60191 54.7958 6.60191H52.6084V12.6389H54.809ZM53.3742 7.30327H54.7738C56.2614 7.30327 57.1637 8.23101 57.1637 9.63371C57.1637 11.032 56.257 11.9286 54.7914 11.9286H53.3742V7.30327Z" fill="white"/>
<path d="M61.7129 12.6389V6.60191H60.9338V12.6389H61.7129Z" fill="white"/>
<path d="M67.2215 12.6389V7.3077H69.1185V6.60191H64.5499V7.3077H66.4425V12.6389H67.2215Z" fill="white"/>
<path d="M75.9783 12.6389V11.9286H72.739V9.90449H75.5206V9.22977H72.739V7.31658H75.9387V6.60191H71.9599V12.6389H75.9783Z" fill="white"/>
<path d="M81.1129 12.6389C83.001 12.6389 84.2554 11.4315 84.2554 9.61596C84.2554 7.80931 82.9922 6.60191 81.0996 6.60191H78.9122V12.6389H81.1129ZM79.678 7.30327H81.0776C82.5653 7.30327 83.4675 8.23101 83.4675 9.63371C83.4675 11.032 82.5609 11.9286 81.0952 11.9286H79.678V7.30327Z" fill="white"/>
<path d="M94.0755 12.6389C95.0086 12.6389 95.88 12.0263 95.88 10.9343C95.88 10.2285 95.3739 9.63371 94.7401 9.44728C95.1846 9.25196 95.5323 8.74592 95.5323 8.19105C95.5323 7.24556 94.8193 6.60191 93.8246 6.60191H91.2675V12.6389H94.0755ZM92.0553 7.28551H93.7938C94.322 7.28551 94.7445 7.71165 94.7445 8.24876C94.7445 8.79475 94.322 9.22089 93.7894 9.22089H92.0553V7.28551ZM92.0553 9.82903H94.0227C94.6169 9.82903 95.079 10.2996 95.079 10.8766C95.079 11.4892 94.6125 11.9464 94.0139 11.9464H92.0553V9.82903Z" fill="white"/>
<path d="M101.081 12.6389L101.076 10.3217L103.497 6.60191H102.573L100.693 9.6204H100.689L98.8007 6.60191H97.8809L100.302 10.3262V12.6389H101.081Z" fill="white"/>
<path fill-rule="evenodd" clip-rule="evenodd" d="M110.439 5.67861C112.264 5.11042 114.228 4.35284 114.93 3.54791C115.631 4.35284 117.596 5.11042 119.42 5.67861C119.561 7.76195 118.859 12.3548 114.93 14.0593C111 12.3548 110.299 7.76195 110.439 5.67861ZM114.076 9.59553L116.837 6.81142C117.02 6.62676 117.321 6.62676 117.504 6.81142C117.687 6.99609 117.687 7.29438 117.504 7.47904L114.41 10.5993C114.227 10.784 113.931 10.784 113.748 10.5993L112.532 9.37299C112.349 9.18833 112.349 8.89004 112.532 8.70538C112.715 8.52072 113.011 8.52072 113.194 8.70538L114.076 9.59553Z" fill="#1DC872"/>
</svg>
